# xmcd
#
# Track frame offsets: 
#        150
#        17083
#        28881
#        48388
#        64790
#        89340
#        114735
#        130486
#        152530
#        180844
#        213570
#        250365
#        271445
#
# Disc length: 3967 seconds
#
# Revision: 0
# Processed by: cddbd v1.5.2PL0 Copyright (c) Steve Scherf et al.
# Submitted via: ExactAudioCopy v1.3
#
DISCID=b70f7d0d
DTITLE=Awek - Just Pick Up The Pieces
DYEAR=2005
DGENRE=Modern Electric Blues
TTITLE0=Everything I Do Is Wrong
TTITLE1=Hot Dog Boogie
TTITLE2=I Gave You Money
TTITLE3=Road Band
TTITLE4=She Don't Live By My Side
TTITLE5=What's Gonna Happened to Me
TTITLE6=Tired to Be Lonesome
TTITLE7=The Thing I Used to Do
TTITLE8=The Girl I've Found
TTITLE9=Someday After a While
TTITLE10=Got My Mojo Working
TTITLE11=Listen Pretty Baby
TTITLE12=Flamenco Dancer
EXTD=
EXTT0=
EXTT1=
EXTT2=
EXTT3=
EXTT4=
EXTT5=
EXTT6=
EXTT7=
EXTT8=
EXTT9=
EXTT10=
EXTT11=
EXTT12=
PLAYORDER=
